<svg id="visual" viewBox="0 0 900 600" width="900" height="600" xmlns="http://www.w3.org/2000/svg" xmlns:xlink="http://www.w3.org/1999/xlink" version="1.1"><path d="M0 49L75 55L150 49L225 73L300 55L375 61L450 61L525 67L600 49L675 73L750 55L825 55L900 43L900 0L825 0L750 0L675 0L600 0L525 0L450 0L375 0L300 0L225 0L150 0L75 0L0 0Z" fill="#00cc8e"></path><path d="M0 139L75 139L150 145L225 169L300 109L375 121L450 109L525 163L600 145L675 133L750 133L825 127L900 145L900 41L825 53L750 53L675 71L600 47L525 65L450 59L375 59L300 53L225 71L150 47L75 53L0 47Z" fill="#00bd8b"></path><path d="M0 235L75 241L150 265L225 283L300 229L375 247L450 181L525 229L600 247L675 223L750 217L825 241L900 217L900 143L825 125L750 131L675 131L600 143L525 161L450 107L375 119L300 107L225 167L150 143L75 137L0 137Z" fill="#00ae87"></path><path d="M0 289L75 289L150 313L225 325L300 271L375 289L450 259L525 271L600 319L675 295L750 259L825 313L900 265L900 215L825 239L750 215L675 221L600 245L525 227L450 179L375 245L300 227L225 281L150 263L75 239L0 233Z" fill="#00a081"></path><path d="M0 487L75 415L150 439L225 493L300 481L375 463L450 433L525 481L600 433L675 499L750 409L825 487L900 409L900 263L825 311L750 257L675 293L600 317L525 269L450 257L375 287L300 269L225 323L150 311L75 287L0 287Z" fill="#00917b"></path><path d="M0 601L75 601L150 601L225 601L300 601L375 601L450 601L525 601L600 601L675 601L750 601L825 601L900 601L900 407L825 485L750 407L675 497L600 431L525 479L450 431L375 461L300 479L225 491L150 437L75 413L0 485Z" fill="#038373"></path></svg>