<svg id="visual" viewBox="0 0 600 900" width="600" height="900" xmlns="http://www.w3.org/2000/svg" xmlns:xlink="http://www.w3.org/1999/xlink" version="1.1"><path d="M0 73L50 82L100 73L150 109L200 82L250 91L300 91L350 100L400 73L450 109L500 82L550 82L600 64L600 0L550 0L500 0L450 0L400 0L350 0L300 0L250 0L200 0L150 0L100 0L50 0L0 0Z" fill="#00cc8e"></path><path d="M0 208L50 208L100 217L150 253L200 163L250 181L300 163L350 244L400 217L450 199L500 199L550 190L600 217L600 62L550 80L500 80L450 107L400 71L350 98L300 89L250 89L200 80L150 107L100 71L50 80L0 71Z" fill="#00bd8b"></path><path d="M0 352L50 361L100 397L150 424L200 343L250 370L300 271L350 343L400 370L450 334L500 325L550 361L600 325L600 215L550 188L500 197L450 197L400 215L350 242L300 161L250 179L200 161L150 251L100 215L50 206L0 206Z" fill="#00ae87"></path><path d="M0 433L50 433L100 469L150 487L200 406L250 433L300 388L350 406L400 478L450 442L500 388L550 469L600 397L600 323L550 359L500 323L450 332L400 368L350 341L300 269L250 368L200 341L150 422L100 395L50 359L0 350Z" fill="#00a081"></path><path d="M0 730L50 622L100 658L150 739L200 721L250 694L300 649L350 721L400 649L450 748L500 613L550 730L600 613L600 395L550 467L500 386L450 440L400 476L350 404L300 386L250 431L200 404L150 485L100 467L50 431L0 431Z" fill="#00917b"></path><path d="M0 901L50 901L100 901L150 901L200 901L250 901L300 901L350 901L400 901L450 901L500 901L550 901L600 901L600 611L550 728L500 611L450 746L400 647L350 719L300 647L250 692L200 719L150 737L100 656L50 620L0 728Z" fill="#038373"></path></svg>