<svg id="visual" viewBox="0 0 540 1000" width="540" height="1000" xmlns="http://www.w3.org/2000/svg" xmlns:xlink="http://www.w3.org/1999/xlink" version="1.1"><path d="M0 81L45 91L90 81L135 121L180 91L225 101L270 101L315 111L360 81L405 121L450 91L495 91L540 71L540 0L495 0L450 0L405 0L360 0L315 0L270 0L225 0L180 0L135 0L90 0L45 0L0 0Z" fill="#00cc8e"></path><path d="M0 231L45 231L90 241L135 281L180 181L225 201L270 181L315 271L360 241L405 221L450 221L495 211L540 241L540 69L495 89L450 89L405 119L360 79L315 109L270 99L225 99L180 89L135 119L90 79L45 89L0 79Z" fill="#00bd8b"></path><path d="M0 391L45 401L90 441L135 471L180 381L225 411L270 301L315 381L360 411L405 371L450 361L495 401L540 361L540 239L495 209L450 219L405 219L360 239L315 269L270 179L225 199L180 179L135 279L90 239L45 229L0 229Z" fill="#00ae87"></path><path d="M0 481L45 481L90 521L135 541L180 451L225 481L270 431L315 451L360 531L405 491L450 431L495 521L540 441L540 359L495 399L450 359L405 369L360 409L315 379L270 299L225 409L180 379L135 469L90 439L45 399L0 389Z" fill="#00a081"></path><path d="M0 811L45 691L90 731L135 821L180 801L225 771L270 721L315 801L360 721L405 831L450 681L495 811L540 681L540 439L495 519L450 429L405 489L360 529L315 449L270 429L225 479L180 449L135 539L90 519L45 479L0 479Z" fill="#00917b"></path><path d="M0 1001L45 1001L90 1001L135 1001L180 1001L225 1001L270 1001L315 1001L360 1001L405 1001L450 1001L495 1001L540 1001L540 679L495 809L450 679L405 829L360 719L315 799L270 719L225 769L180 799L135 819L90 729L45 689L0 809Z" fill="#038373"></path></svg>